# xmcd
#
# Track frame offsets:
#	150
#	10812
#	22590
#	36483
#	48365
#	59832
#	72960
#	84055
#	93109
#	104544
#
# Disc length: 1572 seconds
#
# Revision: 0
# Processed by: cddbd v1.5.2PL0 Copyright (c) Steve Scherf et al.
# Submitted via: EasyCDDAExtractor 10.2.0.1
#
DISCID=7406220a
DTITLE=Narrow Way Quartet - That Day I Got In
DYEAR=1900
DGENRE=Gospel
TTITLE0=What A Wonderful Savior
TTITLE1=That Day I Got In
TTITLE2=Empty Tomb In Jeruselem
TTITLE3=Just A Few More Heartaches
TTITLE4=When I Hear The Trumpet Sound
TTITLE5=I'm Saved By The Blood
TTITLE6=I'm Gonna Live There
TTITLE7=That's Where I'm Going
TTITLE8=Keep On Praying
TTITLE9=King Of The Jews
EXTD=
EXTT0=
EXTT1=
EXTT2=
EXTT3=
EXTT4=
EXTT5=
EXTT6=
EXTT7=
EXTT8=
EXTT9=
PLAYORDER=
